PathFileType	4	(X/Y/Z)	/Users/niels/Desktop/University/Third Semester/Perception and Action/Exam/Gymnastics Motion Tracking/Code for Gym Tracking/Analyzed Data/Webcam_Backflip/id5_2_trajectory_Sports2D/id5_2_trajectory_Sports2D_px_person00.trc
DataRate	CameraRate	NumFrames	NumMarkers	Units	OrigDataRate	OrigDataStartFrame	OrigNumFrames
29.770992366412216	29.770992366412216	12	22	m	29.770992366412216	65	131
Frame#	Time	Hip			RHip			RKnee			RAnkle			RBigToe			RSmallToe			RHeel			LHip			LKnee			LAnkle			LBigToe			LSmallToe			LHeel			Neck			Head			Nose			RShoulder			RElbow			RWrist			LShoulder			LElbow			LWrist		
		X1	Y1	Z1	X2	Y2	Z2	X3	Y3	Z3	X4	Y4	Z4	X5	Y5	Z5	X6	Y6	Z6	X7	Y7	Z7	X8	Y8	Z8	X9	Y9	Z9	X10	Y10	Z10	X11	Y11	Z11	X12	Y12	Z12	X13	Y13	Z13	X14	Y14	Z14	X15	Y15	Z15	X16	Y16	Z16	X17	Y17	Z17	X18	Y18	Z18	X19	Y19	Z19	X20	Y20	Z20	X21	Y21	Z21	X22	Y22	Z22
65	2.183333333333333	0.8538686342721467	-0.6403454880220106	0.0	0.8499972973413787	-0.6412849355957402	0.0	0.9259336618897636	-0.7421763703625431	0.0	0.9222075966959198	-0.8747611486146327	0.0	0.9731200660931848	-0.8848679989145211	0.0	0.9648299830156063	-0.8929081662839622	0.0	0.910977820395014	-0.896901806042439	0.0	0.8571628380149544	-0.6399240376863038	0.0	0.8564655354600696	-0.7563112804113739	0.0	0.8243057685650383	-0.8880308018678692	0.0	0.8819192250088982	-0.9003171116471795	0.0	0.8781355400346433	-0.8944914924315298	0.0	0.8150653274841227	-0.903597980892673	0.0	0.8534987597776982	-0.4559624477289256	0.0	0.8852859678391873	-0.3792656542143382	0.0	0.8951877704367682	-0.4310246360721487	0.0	0.825612267191599	-0.4780777227651266	0.0	0.798732059828183	-0.5634681513979756	0.0	0.8010649982874543	-0.6462769687100435	0.0	0.8635352489022887	-0.4819039523599449	0.0	0.8638075228647972	-0.5704569820168955	0.0	0.8971925744770655	-0.630875073991669	0.0
66	2.2169230769230768	0.8521322852972112	-0.6378348242886539	0.0	0.848111770417838	-0.6388583701751828	0.0	0.9225698046414673	-0.7398748958682043	0.0	0.9213416407902143	-0.8728872068294189	0.0	0.9722876190073513	-0.882631176413499	0.0	0.963837018433387	-0.8904740555467714	0.0	0.9105095639942535	-0.89510494793995	0.0	0.8559069312810247	-0.6375642598565333	0.0	0.8555157553651519	-0.7541236689583616	0.0	0.8242306077028655	-0.8856201391742564	0.0	0.8807776998806007	-0.8975686620775688	0.0	0.8770419537218741	-0.892279122715052	0.0	0.8150397385104331	-0.9017232866855279	0.0	0.8517165250852894	-0.4533509074014504	0.0	0.8849876032842812	-0.3775449116828603	0.0	0.8941365777847567	-0.42897252346038783	0.0	0.8242413929526594	-0.47536602443380405	0.0	0.7987109460373784	-0.5621539717228823	0.0	0.804980079435982	-0.644353923631326	0.0	0.8608227747179122	-0.4789079647451623	0.0	0.859480743290465	-0.5664231002804342	0.0	0.8858257770087901	-0.6312245565424833	0.0
67	2.2505128205128204	0.8502794119398015	-0.6348671529068112	0.0	0.8462440611099499	-0.6359271366624749	0.0	0.9199813247002148	-0.7363038045353169	0.0	0.9202337044711487	-0.869706236248585	0.0	0.9708054842540933	-0.8790543497280462	0.0	0.9621822557513241	-0.8866026589937517	0.0	0.9097216713958362	-0.8917623666761695	0.0	0.8542650051973301	-0.6347363662606523	0.0	0.8546145522570303	-0.7513682137483458	0.0	0.8242079120908099	-0.8824941600505187	0.0	0.8794610619814685	-0.8940852336310031	0.0	0.8756827585407684	-0.889394430180272	0.0	0.8150720644892115	-0.8990103047763804	0.0	0.8500485083194204	-0.4499605677141533	0.0	0.8846436763981773	-0.3750368657401742	0.0	0.8930114570052679	-0.4261659480894041	0.0	0.8229318501400469	-0.47182667362491004	0.0	0.7988165601376473	-0.5594979624524042	0.0	0.8097924416094658	-0.6405219192884334	0.0	0.8584679671092124	-0.4751688568298505	0.0	0.8554600023322244	-0.5612286572264429	0.0	0.8764509508452348	-0.6285508733290427	0.0
68	2.2841025641025636	0.848272995164993	-0.6316508514767694	0.0	0.8443295264987255	-0.6326855993190669	0.0	0.9183415400924725	-0.731649917688232	0.0	0.9187449314899883	-0.8654651041404988	0.0	0.9685803732318305	-0.8745813095790896	0.0	0.9597727319889294	-0.8817741950112039	0.0	0.9084079253184575	-0.8871528972815705	0.0	0.852140362176646	-0.6316179296021438	0.0	0.8537164928484373	-0.7482768175956693	0.0	0.8241980636011953	-0.8790053689871431	0.0	0.8781153290205634	-0.8902316149609536	0.0	0.8742365693416528	-0.8861084460315775	0.0	0.8150784842110379	-0.89576313232118	0.0	0.8485120372997269	-0.4461681131148081	0.0	0.8842379075239849	-0.3719896132776341	0.0	0.8918297540570459	-0.4229529005275995	0.0	0.8216506579104036	-0.46786041549417506	0.0	0.7990904100063289	-0.555942041195259	0.0	0.8153134114576669	-0.6354178402351444	0.0	0.8565017759067762	-0.4710621064657178	0.0	0.851797824212534	-0.5556614956252208	0.0	0.8692698682325593	-0.6240411479321203	0.0
69	2.3176923076923073	0.8462824176226629	-0.6283320089704142	0.0	0.8424289131932101	-0.6293061231888858	0.0	0.9174710863435273	-0.7264693579722011	0.0	0.9166634928099016	-0.8606895756622348	0.0	0.9655651514709637	-0.8698832497198403	0.0	0.9565453384626099	-0.8767158575975759	0.0	0.9063223802762743	-0.8818959889870559	0.0	0.8497967357467393	-0.6283509960159397	0.0	0.8528553987269226	-0.745005686206356	0.0	0.8241756055001122	-0.8754797882569431	0.0	0.8768750444551278	-0.8863577963985119	0.0	0.8728913010438789	-0.8827237792855985	0.0	0.8150071106631397	-0.8923486647953803	0.0	0.8471398692046109	-0.44234860998641246	0.0	0.8837188212967945	-0.36868518112821425	0.0	0.890620428999733	-0.4196773231336355	0.0	0.8203365647722711	-0.46385722140620284	0.0	0.7995426943142704	-0.5520096938646066	0.0	0.8213369604048847	-0.6296255545021966	0.0	0.854956562762044	-0.46699344276183213	0.0	0.8488290821842543	-0.5504456789753066	0.0	0.864480860562391	-0.6189932466234526	0.0
70	2.351282051282051	0.8445203704904628	-0.6250849436748654	0.0	0.8407054826639115	-0.6259876655721279	0.0	0.9169270137928291	-0.7215803992792821	0.0	0.9138292928823932	-0.8560599863591165	0.0	0.9618652015057209	-0.8657058913177392	0.0	0.9526046133757954	-0.8722199892829561	0.0	0.9033176955695743	-0.8768014879903734	0.0	0.8475904633497751	-0.625115699675769	0.0	0.8520802481717997	-0.7416474009816871	0.0	0.8241271813223505	-0.8721883523213064	0.0	0.8758466457548005	-0.8827470464976289	0.0	0.8717950441696279	-0.8795439149462498	0.0	0.8148623966816266	-0.8891117118772572	0.0	0.8459533845571138	-0.4388169122396886	0.0	0.8830128892257566	-0.36541402861413536	0.0	0.8893769068301385	-0.41663276784885833	0.0	0.8189620100552206	-0.46014366065582885	0.0	0.8002231479543527	-0.5482090660515601	0.0	0.827651971683193	-0.6237361357637609	0.0	0.8538583114236133	-0.46334095588803004	0.0	0.8470351674140298	-0.5461857597864992	0.0	0.862337255716931	-0.6144975933325035	0.0
71	2.3848717948717946	0.843094632908866	-0.6221788621131132	0.0	0.8393232090388829	-0.623001679977529	0.0	0.9161774136942511	-0.7178351560648943	0.0	0.910334318114416	-0.8522775495896983	0.0	0.9578110238807324	-0.8626890639594753	0.0	0.9483157314534529	-0.8689658108757632	0.0	0.8995571629114483	-0.8726817027241649	0.0	0.8457396533508905	-0.6221872539825247	0.0	0.8513901449342632	-0.7383420257175877	0.0	0.8240587039156442	-0.8693435990592852	0.0	0.8751115996624562	-0.8796167117756426	0.0	0.87105819854753	-0.8768293158349258	0.0	0.8146871984096056	-0.8863203991708526	0.0	0.8449590627162582	-0.4358179028960925	0.0	0.8820363913183389	-0.36241617962869904	0.0	0.88808319606508	-0.4139819594450235	0.0	0.817590560188135	-0.456950838129057	0.0	0.8012953303277952	-0.5449214010160213	0.0	0.8341254138044649	-0.618310698343484	0.0	0.8532405512494324	-0.4604161922826081	0.0	0.8468678420938358	-0.5432803844626855	0.0	0.863124556452742	-0.6112223569659302	0.0
72	2.418461538461538	0.8419813858192811	-0.619938144568585	0.0	0.8383477367541481	-0.6206798310969287	0.0	0.9147638900605712	-0.71588610573845	0.0	0.90658745390316	-0.849986055905096	0.0	0.9539164653728122	-0.8612169973065293	0.0	0.9442550005808792	-0.8673946410689694	0.0	0.8955853499942374	-0.8702029376451258	0.0	0.8443224689019835	-0.6198936317673217	0.0	0.8507234593229294	-0.7353914226088887	0.0	0.8240108159003972	-0.8671299974461094	0.0	0.8747450424902167	-0.8771778444353547	0.0	0.8707803492590371	-0.8747764178328312	0.0	0.8145446706664917	-0.8841573111274129	0.0	0.8441483618328729	-0.43352947587607893	0.0	0.880673769648551	-0.3598468361066602	0.0	0.8867531478542573	-0.41174883270817475	0.0	0.8163820154008189	-0.4544270709439669	0.0	0.803036356975908	-0.542367140158063	0.0	0.8407519815999995	-0.6137904237871757	0.0	0.8531286520838179	-0.4584599656152461	0.0	0.8486248072396333	-0.5418636352206926	0.0	0.867117589768976	-0.6093923203879628	0.0
73	2.452051282051282	0.8410595346856804	-0.6186368912584727	0.0	0.8377037108033762	-0.6193221926678074	0.0	0.9124275551719968	-0.7160419884593425	0.0	0.9031301165802617	-0.8496759393509532	0.0	0.9507495684734484	-0.8613651667030472	0.0	0.9410520910042162	-0.8676371456832718	0.0	0.8921132491251734	-0.8697687996467509	0.0	0.8433337385030691	-0.6185137388985845	0.0	0.8500041524329625	-0.7332425032287372	0.0	0.8240463658306705	-0.8657304598277137	0.0	0.8748108625680886	-0.8756554639779857	0.0	0.8710413609964434	-0.8735392761979187	0.0	0.8145027193275967	-0.8827609038876492	0.0	0.8435004140589327	-0.43205158077889216	0.0	0.8788062754805518	-0.35780270139323217	0.0	0.8854021247201608	-0.4099118547748824	0.0	0.8155278622582531	-0.45265982770882707	0.0	0.8057395574565842	-0.540594905616031	0.0	0.8475691463704561	-0.6103908376883108	0.0	0.8534774161041964	-0.45761062954482334	0.0	0.8523254369628507	-0.5417635825687617	0.0	0.8744333894329049	-0.6087953302048001	0.0
74	2.4856410256410255	0.8402114598232684	-0.6184140340081552	0.0	0.8372442483565132	-0.6190951923870791	0.0	0.9092132490896153	-0.7182197639708539	0.0	0.9003578980139825	-0.8514881492263584	0.0	0.9486851820079075	-0.8629339156534206	0.0	0.9390990052661256	-0.8694898585286137	0.0	0.8896511606643732	-0.8713958669161056	0.0	0.8427264052216117	-0.6182014326739721	0.0	0.8492111119085072	-0.7323204273740612	0.0	0.8242066884292194	-0.8653069677836748	0.0	0.8753251966222231	-0.8752236179569046	0.0	0.871844581300425	-0.8732500903221155	0.0	0.8145989680151362	-0.8822743978190837	0.0	0.842991979647685	-0.431405968451361	0.0	0.8763968518928763	-0.3563575484915505	0.0	0.8839999537080402	-0.4084765424031116	0.0	0.8151562569887971	-0.451705092329538	0.0	0.80957231643577	-0.5394696030011193	0.0	0.8545561880632039	-0.6080611830865644	0.0	0.85411173417411	-0.45786182993628655	0.0	0.8576267203026364	-0.5425482812920346	0.0	0.8847833657587275	-0.6088533926935452	0.0
75	2.5192307692307687	0.839467259169841	-0.6192430779308727	0.0	0.8369057006361784	-0.6199947247835366	0.0	0.9055524585588972	-0.7219573671192181	0.0	0.8983422323403059	-0.8550326180808637	0.0	0.9476591898853137	-0.8655108400952107	0.0	0.9382706460436647	-0.8724671476951438	0.0	0.8882229612238491	-0.8746123875231346	0.0	0.8425190279518308	-0.6189678165434082	0.0	0.8484408844217189	-0.7328342338834443	0.0	0.8244874404734778	-0.8659486090189477	0.0	0.8762594442074894	-0.8759381845301619	0.0	0.8730981734271503	-0.8739777880546303	0.0	0.8148221833496769	-0.8828094486864204	0.0	0.8425968089610386	-0.4315630713541784	0.0	0.8735114234503201	-0.3555738537564354	0.0	0.8824972705716391	-0.4074722418312325	0.0	0.8152548603798145	-0.45163568499638135	0.0	0.8144737799556393	-0.5387710986309056	0.0	0.861653051150785	-0.6065796370565456	0.0	0.8547675986127921	-0.4590938529971069	0.0	0.863962365242127	-0.5437616377403786	0.0	0.8974247332234669	-0.6088979066030522	0.0
76	2.5528205128205124	0.8390202165772656	-0.6209572319193342	0.0	0.8367654624739018	-0.6218707343692136	0.0	0.9022470218514377	-0.726468578134751	0.0	0.8968811208865279	-0.859437476610114	0.0	0.9472299653878649	-0.8685755574561032	0.0	0.9380080455833377	-0.8759441738596796	0.0	0.887370786970574	-0.8785214447117505	0.0	0.8428327001503676	-0.6207034308538346	0.0	0.8479169231473963	-0.7346700996834594	0.0	0.8248446831400246	-0.8676028391604047	0.0	0.8775514378962332	-0.8777127916409364	0.0	0.8746225113963353	-0.8756757973122702	0.0	0.8151207992683968	-0.8843277085948934	0.0	0.8422950025487634	-0.43249379646747727	0.0	0.8702805406183237	-0.35552319160292817	0.0	0.8809141815546248	-0.40696473798423255	0.0	0.815642376268232	-0.45255281607849784	0.0	0.8201375687774777	-0.5383782773879617	0.0	0.868832610559259	-0.6056549030845071	0.0	0.8552638631438196	-0.46115186606914704	0.0	0.8708262153046749	-0.5451400349945769	0.0	0.9113958395773777	-0.6084625085466077	0.0
